<svg width="13" height="26" viewBox="0 0 13 26" fill="none" xmlns="http://www.w3.org/2000/svg">
<g clip-path="url(#clip0_278_17898)">
<path d="M6.16984 1.54298C6.14155 1.67341 6.12284 1.77666 6.03294 1.87741C5.91976 2.00365 5.78057 2.03793 5.62222 2.08643C5.62222 2.08643 5.452 2.14704 4.98332 2.46266C4.48271 2.80001 4.13725 3.5161 4.02498 4.13479C4.00399 4.24975 3.90907 4.81409 4.11625 5.5143C4.15869 5.65727 4.47951 6.38841 4.70951 6.64299C4.72868 6.66389 4.81356 6.75544 4.84642 6.89381C4.85691 6.93896 4.87608 7.01964 4.84642 7.10283C4.8131 7.19521 4.72914 7.26377 4.52697 7.35365C4.32481 7.44352 4.2235 7.48867 4.02498 7.52086C3.4874 7.60781 2.67281 7.99407 2.29084 8.23151C1.72177 8.58517 1.43518 9.03038 1.19559 9.40201C0.972438 9.74814 0.287452 10.8108 0.511065 12.0774C0.621046 12.6999 0.911287 13.1505 1.37814 13.875C1.77242 14.487 2.08411 15.1416 2.47338 15.7561C2.4889 15.7808 2.53727 15.8564 2.56465 15.9651C2.5715 15.9919 2.60527 16.1344 2.56465 16.2996C2.514 16.5056 2.37299 16.6407 2.29084 16.7176C1.86552 17.116 1.65286 17.315 1.56068 17.3864C1.13353 17.7179 0.614657 18.1205 0.511065 18.6405C0.417969 19.1075 0.690868 19.5113 0.921783 19.8528C1.32429 20.4481 1.84909 20.7637 2.29084 21.0233C3.40297 21.6767 4.39007 22.0684 4.39007 22.0684C4.53382 22.1253 4.88384 22.2607 5.02896 22.5701C5.0536 22.6223 5.13438 22.8117 5.07459 23.0299C5.03489 23.1754 4.95549 23.2502 4.66388 23.5315C4.19885 23.9805 4.16052 24.0223 4.11625 24.075C3.88762 24.3475 3.76577 24.4922 3.75117 24.702C3.73657 24.9081 3.84792 25.0766 4.07062 25.4127C4.25133 25.6852 4.52058 26.0251 4.57261 25.9979C4.62417 25.9712 4.4503 25.5878 4.39007 25.4545C4.26502 25.1786 4.22122 25.1556 4.20752 25.0365C4.17786 24.7794 4.34489 24.5649 4.4357 24.4512C4.579 24.2719 4.79166 24.1481 5.2115 23.9078C5.78103 23.5813 6.02198 23.4442 6.30675 23.1971C6.55409 22.9822 6.64399 22.8497 6.67183 22.6955C6.67959 22.6532 6.7088 22.4643 6.53492 22.152C6.34554 21.8113 6.0772 21.6169 5.89603 21.4832C5.89603 21.4832 5.22839 20.9744 4.70951 20.5635C3.98847 19.992 3.90998 19.8403 3.88808 19.6856C3.83468 19.3077 4.12812 18.98 4.20752 18.8914C4.43114 18.6418 4.66068 18.5707 5.02896 18.3897C5.15035 18.3299 5.48988 18.113 6.16984 17.6791C7.11039 17.0784 7.8547 16.4818 8.13216 16.2578C9.03848 15.527 9.51674 15.1412 10.0488 14.502C10.6307 13.8035 11.1414 13.1902 11.3266 12.2446C11.3905 11.919 11.5621 10.9713 11.0528 9.98726C10.6572 9.22309 10.021 8.76409 9.45558 8.35693C8.9358 7.98237 8.66518 7.80847 8.49724 7.77168C8.41373 7.75329 8.23895 7.72319 8.1778 7.60447C8.11436 7.48156 8.20518 7.32606 8.26907 7.22824C8.56296 6.77801 8.98828 6.47494 9.04487 6.43397C9.75815 5.91561 9.8914 4.85088 9.82067 4.2184C9.7869 3.91783 9.68741 3.03076 8.99923 2.58807C8.61133 2.3385 8.10524 2.27496 7.94962 1.87741C7.93045 1.8285 7.86748 1.66756 7.94962 1.54298C8.00986 1.45227 8.12577 1.41381 8.40597 1.37577C8.84863 1.31557 9.07042 1.28589 9.27304 1.33397C9.6363 1.42008 9.66094 1.6199 10.0488 1.87741C10.5828 2.2319 11.155 2.26493 11.6917 2.29544C12.0933 2.31843 12.6049 2.3477 12.787 2.08643C12.8413 2.00867 12.8755 1.89162 12.8326 1.7938C12.7418 1.58688 12.3553 1.58479 12.3306 1.58479C12.1636 1.58562 12.0586 1.63746 11.9655 1.66839C11.5872 1.79422 11.1884 1.64498 10.9159 1.54298C10.5034 1.38873 10.5111 1.23991 9.8663 0.748719C9.33556 0.344481 9.04304 0.127103 8.58851 0.0380623C8.12851 -0.0518149 7.75065 0.0380623 7.58454 0.0798656C7.37735 0.131702 6.55546 0.336956 6.35238 0.874129C6.31633 0.969859 6.23373 1.25119 6.16984 1.54298Z" fill="white"/>
</g>
<defs>
<clipPath id="clip0_278_17898">
<rect width="12.385" height="26" fill="white" transform="translate(0.466797)"/>
</clipPath>
</defs>
</svg>
