<svg width="20" height="20" viewBox="0 0 20 20" fill="none" xmlns="http://www.w3.org/2000/svg">
<path d="M18 4.5H15.82C15.93 4.19 16 3.85 16 3.5C16 1.84 14.66 0.5 13 0.5C11.95 0.5 11.04 1.04 10.5 1.85L10 2.52L9.5 1.84C8.96 1.04 8.05 0.5 7 0.5C5.34 0.5 4 1.84 4 3.5C4 3.85 4.07 4.19 4.18 4.5H2C0.89 4.5 0.00999999 5.39 0.00999999 6.5L0 17.5C0 18.61 0.89 19.5 2 19.5H18C19.11 19.5 20 18.61 20 17.5V6.5C20 5.39 19.11 4.5 18 4.5ZM13 2.5C13.55 2.5 14 2.95 14 3.5C14 4.05 13.55 4.5 13 4.5C12.45 4.5 12 4.05 12 3.5C12 2.95 12.45 2.5 13 2.5ZM7 2.5C7.55 2.5 8 2.95 8 3.5C8 4.05 7.55 4.5 7 4.5C6.45 4.5 6 4.05 6 3.5C6 2.95 6.45 2.5 7 2.5ZM18 17.5H2V15.5H18V17.5ZM18 12.5H2V6.5H7.08L5 9.33L6.62 10.5L10 5.9L13.38 10.5L15 9.33L12.92 6.5H18V12.5Z" fill="white"/>
</svg>
