<svg width="55" height="117" viewBox="0 0 55 117" fill="none" xmlns="http://www.w3.org/2000/svg">
<path d="M25.3261 6.94563C25.2004 7.53255 25.1173 7.9972 24.7181 8.45055C24.2155 9.01866 23.5974 9.17292 22.8942 9.39113C22.8942 9.39113 22.1383 9.6639 20.057 11.0842C17.8338 12.6023 16.2997 15.8247 15.8012 18.6088C15.708 19.1261 15.2864 21.6657 16.2065 24.8166C16.395 25.4599 17.8197 28.7501 18.841 29.8957C18.9262 29.9898 19.3031 30.4017 19.449 31.0244C19.4956 31.2276 19.5807 31.5906 19.449 31.965C19.3011 32.3807 18.9282 32.6892 18.0304 33.0937C17.1326 33.4981 16.6827 33.7013 15.8012 33.8461C13.4139 34.2374 9.79646 35.9756 8.10022 37.0441C5.57308 38.6355 4.30039 40.639 3.23644 42.3113C2.24545 43.8689 -0.796433 48.6508 0.196587 54.3507C0.684991 57.1517 1.97389 59.1796 4.04707 62.4397C5.79803 65.1937 7.18218 68.1396 8.91084 70.9049C8.97975 71.0158 9.19456 71.3563 9.31616 71.8454C9.34656 71.9658 9.49652 72.6073 9.31616 73.3504C9.09121 74.2778 8.465 74.8854 8.10022 75.2315C6.21145 77.0242 5.26707 77.9197 4.8577 78.2414C2.96083 79.7331 0.656619 81.5447 0.196587 83.8848C-0.216833 85.9861 0.995056 87.8033 2.0205 89.3402C3.80794 92.0189 6.13849 93.4392 8.10022 94.6074C13.039 97.5476 17.4224 99.3103 17.4224 99.3103C18.0608 99.5661 19.6152 100.176 20.2596 101.568C20.3691 101.803 20.7278 102.655 20.4623 103.637C20.286 104.292 19.9334 104.628 18.6384 105.894C16.5733 107.915 16.4031 108.103 16.2065 108.34C15.1912 109.566 14.6501 110.217 14.5852 111.162C14.5204 112.089 15.0149 112.847 16.0038 114.359C16.8064 115.586 18.002 117.115 18.2331 116.993C18.4621 116.873 17.69 115.148 17.4224 114.548C16.8672 113.306 16.6726 113.203 16.6118 112.666C16.4801 111.51 17.2218 110.545 17.6251 110.033C18.2614 109.226 19.2058 108.669 21.0703 107.587C23.5994 106.118 24.6695 105.501 25.934 104.389C27.0324 103.422 27.4317 102.826 27.5553 102.132C27.5898 101.942 27.7195 101.092 26.9473 99.6865C26.1063 98.1534 24.9147 97.2786 24.1101 96.6767C24.1101 96.6767 21.1453 94.3873 18.841 92.5381C15.6391 89.9666 15.2905 89.2837 15.1932 88.5877C14.9561 86.8871 16.2592 85.4123 16.6118 85.0135C17.6048 83.8905 18.6242 83.5707 20.2596 82.7561C20.7987 82.4871 22.3065 81.5108 25.3261 79.5582C29.5028 76.8549 32.8082 74.1705 34.0403 73.1622C38.0651 69.874 40.1889 68.1377 42.5519 65.2614C45.1358 62.118 47.4035 59.3583 48.2263 55.1032C48.51 53.6377 49.272 49.3732 47.0104 44.9449C45.2533 41.5062 42.4283 39.4407 39.9174 37.6084C37.6091 35.9229 36.4074 35.1404 35.6616 34.9748C35.2907 34.892 34.5145 34.7566 34.243 34.2224C33.9613 33.6693 34.3646 32.9695 34.6483 32.5293C35.9534 30.5033 37.8422 29.1395 38.0935 28.9551C41.261 26.6225 41.8528 21.8312 41.5386 18.985C41.3887 17.6325 40.9469 13.6407 37.8908 11.6485C36.1682 10.5255 33.9208 10.2395 33.2297 8.45055C33.1446 8.23046 32.8649 7.50621 33.2297 6.94563C33.4972 6.53742 34.012 6.36435 35.2563 6.19317C37.222 5.92228 38.207 5.78872 39.1068 6.00505C40.7199 6.39257 40.8293 7.29176 42.5519 8.45055C44.923 10.0458 47.4643 10.1944 49.8476 10.3317C51.631 10.4352 53.9028 10.5669 54.7114 9.39113C54.9525 9.04124 55.1045 8.51451 54.914 8.07432C54.5107 7.14315 52.7942 7.13375 52.6848 7.13375C51.9431 7.13751 51.4769 7.37077 51.0635 7.50998C49.3835 8.0762 47.6123 7.40463 46.4024 6.94563C44.5704 6.25148 44.6048 5.58179 41.7413 3.37144C39.3844 1.55236 38.0854 0.574163 36.0669 0.173478C34.0241 -0.23097 32.3461 0.173478 31.6084 0.361593C30.6884 0.594856 27.0385 1.5185 26.1367 3.93578C25.9766 4.36657 25.6098 5.63259 25.3261 6.94563Z" fill="url(#paint0_linear_251_3778)"/>
<defs>
<linearGradient id="paint0_linear_251_3778" x1="27.5" y1="0" x2="27.5" y2="70.5" gradientUnits="userSpaceOnUse">
<stop stop-color="#A70611"/>
<stop offset="1" stop-color="#F2825D"/>
</linearGradient>
</defs>
</svg>
